<mxfile host="app.diagrams.net" modified="2024-07-02T19:54:44.037Z" agent="Mozilla/5.0 (Windows NT 10.0; Win64; x64) AppleWebKit/537.36 (KHTML, like Gecko) Chrome/126.0.0.0 Safari/537.36" etag="J-S-Lzg75Bx0sM7XOY7g" version="24.6.4" type="device">
  <diagram name="Page-1" id="3kHY5_fBUIeR80XQGhOv">
    <mxGraphModel dx="794" dy="547" grid="1" gridSize="10" guides="1" tooltips="1" connect="1" arrows="1" fold="1" page="1" pageScale="1" pageWidth="850" pageHeight="1100" math="0" shadow="0">
      <root>
        <mxCell id="0" />
        <mxCell id="1" parent="0" />
        <mxCell id="SvtYBPCczllp7nN_5kA5-2" value="Movies" style="rounded=1;whiteSpace=wrap;html=1;" vertex="1" parent="1">
          <mxGeometry x="40" y="420" width="120" height="70" as="geometry" />
        </mxCell>
        <mxCell id="SvtYBPCczllp7nN_5kA5-30" value="" style="edgeStyle=orthogonalEdgeStyle;rounded=0;orthogonalLoop=1;jettySize=auto;html=1;shape=link;" edge="1" parent="1" source="SvtYBPCczllp7nN_5kA5-4" target="SvtYBPCczllp7nN_5kA5-16">
          <mxGeometry relative="1" as="geometry" />
        </mxCell>
        <mxCell id="SvtYBPCczllp7nN_5kA5-4" value="Directors" style="rounded=1;whiteSpace=wrap;html=1;" vertex="1" parent="1">
          <mxGeometry x="400" y="660" width="120" height="60" as="geometry" />
        </mxCell>
        <mxCell id="SvtYBPCczllp7nN_5kA5-5" value="Casts" style="rounded=1;whiteSpace=wrap;html=1;" vertex="1" parent="1">
          <mxGeometry x="630" y="270" width="120" height="60" as="geometry" />
        </mxCell>
        <mxCell id="SvtYBPCczllp7nN_5kA5-6" value="Movie Details" style="rounded=1;whiteSpace=wrap;html=1;" vertex="1" parent="1">
          <mxGeometry x="400" y="425" width="120" height="60" as="geometry" />
        </mxCell>
        <mxCell id="SvtYBPCczllp7nN_5kA5-27" value="" style="edgeStyle=orthogonalEdgeStyle;rounded=0;orthogonalLoop=1;jettySize=auto;html=1;shape=link;" edge="1" parent="1" source="SvtYBPCczllp7nN_5kA5-7" target="SvtYBPCczllp7nN_5kA5-23">
          <mxGeometry relative="1" as="geometry" />
        </mxCell>
        <mxCell id="SvtYBPCczllp7nN_5kA5-7" value="Movie Casts" style="rounded=1;whiteSpace=wrap;html=1;arcSize=28;" vertex="1" parent="1">
          <mxGeometry x="270" y="270" width="120" height="60" as="geometry" />
        </mxCell>
        <mxCell id="SvtYBPCczllp7nN_5kA5-9" style="edgeStyle=orthogonalEdgeStyle;rounded=0;orthogonalLoop=1;jettySize=auto;html=1;exitX=1;exitY=0.5;exitDx=0;exitDy=0;entryX=0;entryY=0.5;entryDx=0;entryDy=0;shape=link;" edge="1" parent="1" source="SvtYBPCczllp7nN_5kA5-8" target="SvtYBPCczllp7nN_5kA5-6">
          <mxGeometry relative="1" as="geometry" />
        </mxCell>
        <mxCell id="SvtYBPCczllp7nN_5kA5-38" value="" style="edgeStyle=orthogonalEdgeStyle;rounded=0;orthogonalLoop=1;jettySize=auto;html=1;shape=link;" edge="1" parent="1" source="SvtYBPCczllp7nN_5kA5-8" target="SvtYBPCczllp7nN_5kA5-2">
          <mxGeometry relative="1" as="geometry" />
        </mxCell>
        <mxCell id="SvtYBPCczllp7nN_5kA5-8" value="has deaails" style="rhombus;whiteSpace=wrap;html=1;" vertex="1" parent="1">
          <mxGeometry x="240" y="425" width="90" height="60" as="geometry" />
        </mxCell>
        <mxCell id="SvtYBPCczllp7nN_5kA5-13" value="includes" style="rhombus;whiteSpace=wrap;html=1;" vertex="1" parent="1">
          <mxGeometry x="120" y="270" width="80" height="60" as="geometry" />
        </mxCell>
        <mxCell id="SvtYBPCczllp7nN_5kA5-19" value="" style="edgeStyle=orthogonalEdgeStyle;rounded=0;orthogonalLoop=1;jettySize=auto;html=1;shape=link;" edge="1" parent="1" source="SvtYBPCczllp7nN_5kA5-16" target="SvtYBPCczllp7nN_5kA5-6">
          <mxGeometry relative="1" as="geometry" />
        </mxCell>
        <mxCell id="SvtYBPCczllp7nN_5kA5-16" value="directs" style="rhombus;whiteSpace=wrap;html=1;" vertex="1" parent="1">
          <mxGeometry x="415" y="550" width="90" height="60" as="geometry" />
        </mxCell>
        <mxCell id="SvtYBPCczllp7nN_5kA5-25" value="" style="edgeStyle=orthogonalEdgeStyle;rounded=0;orthogonalLoop=1;jettySize=auto;html=1;shape=link;" edge="1" parent="1" source="SvtYBPCczllp7nN_5kA5-23" target="SvtYBPCczllp7nN_5kA5-5">
          <mxGeometry relative="1" as="geometry" />
        </mxCell>
        <mxCell id="SvtYBPCczllp7nN_5kA5-23" value="part of" style="rhombus;whiteSpace=wrap;html=1;" vertex="1" parent="1">
          <mxGeometry x="490" y="270" width="90" height="60" as="geometry" />
        </mxCell>
        <mxCell id="SvtYBPCczllp7nN_5kA5-32" value="" style="endArrow=none;html=1;rounded=0;entryX=0;entryY=0.5;entryDx=0;entryDy=0;" edge="1" parent="1" target="SvtYBPCczllp7nN_5kA5-13">
          <mxGeometry width="50" height="50" relative="1" as="geometry">
            <mxPoint x="90" y="420" as="sourcePoint" />
            <mxPoint x="110" y="300" as="targetPoint" />
            <Array as="points">
              <mxPoint x="90" y="300" />
            </Array>
          </mxGeometry>
        </mxCell>
        <mxCell id="SvtYBPCczllp7nN_5kA5-35" value="" style="endArrow=none;html=1;rounded=0;exitX=1;exitY=0.5;exitDx=0;exitDy=0;" edge="1" parent="1" source="SvtYBPCczllp7nN_5kA5-13">
          <mxGeometry width="50" height="50" relative="1" as="geometry">
            <mxPoint x="220" y="350" as="sourcePoint" />
            <mxPoint x="270" y="300" as="targetPoint" />
          </mxGeometry>
        </mxCell>
        <mxCell id="SvtYBPCczllp7nN_5kA5-39" value="&lt;u&gt;movie_id&lt;/u&gt;" style="ellipse;whiteSpace=wrap;html=1;" vertex="1" parent="1">
          <mxGeometry y="350" width="70" height="50" as="geometry" />
        </mxCell>
        <mxCell id="SvtYBPCczllp7nN_5kA5-48" value="" style="endArrow=none;html=1;rounded=0;" edge="1" parent="1">
          <mxGeometry width="50" height="50" relative="1" as="geometry">
            <mxPoint x="60" y="420" as="sourcePoint" />
            <mxPoint x="30" y="400" as="targetPoint" />
          </mxGeometry>
        </mxCell>
        <mxCell id="SvtYBPCczllp7nN_5kA5-49" value="movie_name" style="ellipse;whiteSpace=wrap;html=1;" vertex="1" parent="1">
          <mxGeometry x="40" y="540" width="70" height="50" as="geometry" />
        </mxCell>
        <mxCell id="SvtYBPCczllp7nN_5kA5-51" value="" style="endArrow=none;html=1;rounded=0;entryX=0.128;entryY=1.052;entryDx=0;entryDy=0;entryPerimeter=0;" edge="1" parent="1" target="SvtYBPCczllp7nN_5kA5-2">
          <mxGeometry width="50" height="50" relative="1" as="geometry">
            <mxPoint x="60" y="540" as="sourcePoint" />
            <mxPoint x="110" y="490" as="targetPoint" />
          </mxGeometry>
        </mxCell>
        <mxCell id="SvtYBPCczllp7nN_5kA5-52" value="release_date" style="ellipse;whiteSpace=wrap;html=1;" vertex="1" parent="1">
          <mxGeometry x="130" y="540" width="70" height="50" as="geometry" />
        </mxCell>
        <mxCell id="SvtYBPCczllp7nN_5kA5-53" value="" style="endArrow=none;html=1;rounded=0;entryX=0.75;entryY=1;entryDx=0;entryDy=0;" edge="1" parent="1" source="SvtYBPCczllp7nN_5kA5-52" target="SvtYBPCczllp7nN_5kA5-2">
          <mxGeometry width="50" height="50" relative="1" as="geometry">
            <mxPoint x="70" y="550" as="sourcePoint" />
            <mxPoint x="65" y="504" as="targetPoint" />
          </mxGeometry>
        </mxCell>
        <mxCell id="SvtYBPCczllp7nN_5kA5-54" value="&lt;u&gt;id&lt;/u&gt;" style="ellipse;whiteSpace=wrap;html=1;" vertex="1" parent="1">
          <mxGeometry x="260" y="670" width="70" height="50" as="geometry" />
        </mxCell>
        <mxCell id="SvtYBPCczllp7nN_5kA5-56" value="" style="endArrow=none;html=1;rounded=0;entryX=0;entryY=0.5;entryDx=0;entryDy=0;" edge="1" parent="1" target="SvtYBPCczllp7nN_5kA5-4">
          <mxGeometry width="50" height="50" relative="1" as="geometry">
            <mxPoint x="330" y="689.5" as="sourcePoint" />
            <mxPoint x="390" y="689.5" as="targetPoint" />
          </mxGeometry>
        </mxCell>
        <mxCell id="SvtYBPCczllp7nN_5kA5-57" value="director_name" style="ellipse;whiteSpace=wrap;html=1;" vertex="1" parent="1">
          <mxGeometry x="310" y="760" width="80" height="60" as="geometry" />
        </mxCell>
        <mxCell id="SvtYBPCczllp7nN_5kA5-58" value="" style="endArrow=none;html=1;rounded=0;exitX=1;exitY=0;exitDx=0;exitDy=0;" edge="1" parent="1" source="SvtYBPCczllp7nN_5kA5-57">
          <mxGeometry width="50" height="50" relative="1" as="geometry">
            <mxPoint x="380" y="760" as="sourcePoint" />
            <mxPoint x="425" y="720" as="targetPoint" />
          </mxGeometry>
        </mxCell>
        <mxCell id="SvtYBPCczllp7nN_5kA5-59" value="&lt;u&gt;id&lt;/u&gt;" style="ellipse;whiteSpace=wrap;html=1;" vertex="1" parent="1">
          <mxGeometry x="600" y="160" width="70" height="50" as="geometry" />
        </mxCell>
        <mxCell id="SvtYBPCczllp7nN_5kA5-60" value="cast_name" style="ellipse;whiteSpace=wrap;html=1;" vertex="1" parent="1">
          <mxGeometry x="700" y="160" width="80" height="60" as="geometry" />
        </mxCell>
        <mxCell id="SvtYBPCczllp7nN_5kA5-61" value="" style="endArrow=none;html=1;rounded=0;entryX=0.61;entryY=1.06;entryDx=0;entryDy=0;entryPerimeter=0;exitX=0.128;exitY=0.017;exitDx=0;exitDy=0;exitPerimeter=0;" edge="1" parent="1" source="SvtYBPCczllp7nN_5kA5-5" target="SvtYBPCczllp7nN_5kA5-59">
          <mxGeometry width="50" height="50" relative="1" as="geometry">
            <mxPoint x="380" y="310" as="sourcePoint" />
            <mxPoint x="430" y="260" as="targetPoint" />
          </mxGeometry>
        </mxCell>
        <mxCell id="SvtYBPCczllp7nN_5kA5-62" value="" style="endArrow=none;html=1;rounded=0;entryX=0.5;entryY=1;entryDx=0;entryDy=0;exitX=0.633;exitY=0.006;exitDx=0;exitDy=0;exitPerimeter=0;" edge="1" parent="1" source="SvtYBPCczllp7nN_5kA5-5" target="SvtYBPCczllp7nN_5kA5-60">
          <mxGeometry width="50" height="50" relative="1" as="geometry">
            <mxPoint x="380" y="310" as="sourcePoint" />
            <mxPoint x="430" y="260" as="targetPoint" />
          </mxGeometry>
        </mxCell>
        <mxCell id="SvtYBPCczllp7nN_5kA5-63" value="&lt;u&gt;id&lt;/u&gt;" style="ellipse;whiteSpace=wrap;html=1;" vertex="1" parent="1">
          <mxGeometry x="380" y="350" width="70" height="50" as="geometry" />
        </mxCell>
        <mxCell id="SvtYBPCczllp7nN_5kA5-64" value="" style="endArrow=none;html=1;rounded=0;entryX=0.5;entryY=1;entryDx=0;entryDy=0;exitX=0.25;exitY=0;exitDx=0;exitDy=0;" edge="1" parent="1" source="SvtYBPCczllp7nN_5kA5-6" target="SvtYBPCczllp7nN_5kA5-63">
          <mxGeometry width="50" height="50" relative="1" as="geometry">
            <mxPoint x="380" y="510" as="sourcePoint" />
            <mxPoint x="430" y="460" as="targetPoint" />
          </mxGeometry>
        </mxCell>
        <mxCell id="SvtYBPCczllp7nN_5kA5-65" value="&lt;i&gt;movie_id&lt;/i&gt;" style="ellipse;whiteSpace=wrap;html=1;" vertex="1" parent="1">
          <mxGeometry x="490" y="350" width="70" height="50" as="geometry" />
        </mxCell>
        <mxCell id="SvtYBPCczllp7nN_5kA5-66" value="" style="endArrow=none;html=1;rounded=0;entryX=0.5;entryY=1;entryDx=0;entryDy=0;exitX=0.822;exitY=0.011;exitDx=0;exitDy=0;exitPerimeter=0;" edge="1" parent="1" source="SvtYBPCczllp7nN_5kA5-6" target="SvtYBPCczllp7nN_5kA5-65">
          <mxGeometry width="50" height="50" relative="1" as="geometry">
            <mxPoint x="380" y="510" as="sourcePoint" />
            <mxPoint x="430" y="460" as="targetPoint" />
          </mxGeometry>
        </mxCell>
        <mxCell id="SvtYBPCczllp7nN_5kA5-67" value="&lt;i&gt;director_id&lt;/i&gt;" style="ellipse;whiteSpace=wrap;html=1;" vertex="1" parent="1">
          <mxGeometry x="580" y="400" width="70" height="50" as="geometry" />
        </mxCell>
        <mxCell id="SvtYBPCczllp7nN_5kA5-68" value="" style="endArrow=none;html=1;rounded=0;entryX=0;entryY=0.5;entryDx=0;entryDy=0;exitX=1;exitY=0.25;exitDx=0;exitDy=0;" edge="1" parent="1" source="SvtYBPCczllp7nN_5kA5-6" target="SvtYBPCczllp7nN_5kA5-67">
          <mxGeometry width="50" height="50" relative="1" as="geometry">
            <mxPoint x="380" y="510" as="sourcePoint" />
            <mxPoint x="430" y="460" as="targetPoint" />
          </mxGeometry>
        </mxCell>
        <mxCell id="SvtYBPCczllp7nN_5kA5-69" value="budget" style="ellipse;whiteSpace=wrap;html=1;" vertex="1" parent="1">
          <mxGeometry x="670" y="435" width="70" height="50" as="geometry" />
        </mxCell>
        <mxCell id="SvtYBPCczllp7nN_5kA5-71" value="duration" style="ellipse;whiteSpace=wrap;html=1;" vertex="1" parent="1">
          <mxGeometry x="520" y="500" width="70" height="50" as="geometry" />
        </mxCell>
        <mxCell id="SvtYBPCczllp7nN_5kA5-72" value="rating" style="ellipse;whiteSpace=wrap;html=1;" vertex="1" parent="1">
          <mxGeometry x="670" y="500" width="70" height="50" as="geometry" />
        </mxCell>
        <mxCell id="SvtYBPCczllp7nN_5kA5-73" value="" style="endArrow=none;html=1;rounded=0;entryX=-0.029;entryY=0.64;entryDx=0;entryDy=0;entryPerimeter=0;exitX=1;exitY=0.5;exitDx=0;exitDy=0;" edge="1" parent="1" source="SvtYBPCczllp7nN_5kA5-6" target="SvtYBPCczllp7nN_5kA5-69">
          <mxGeometry width="50" height="50" relative="1" as="geometry">
            <mxPoint x="380" y="510" as="sourcePoint" />
            <mxPoint x="430" y="460" as="targetPoint" />
          </mxGeometry>
        </mxCell>
        <mxCell id="SvtYBPCczllp7nN_5kA5-74" value="" style="endArrow=none;html=1;rounded=0;entryX=0.5;entryY=0;entryDx=0;entryDy=0;exitX=1;exitY=1;exitDx=0;exitDy=0;" edge="1" parent="1" source="SvtYBPCczllp7nN_5kA5-6" target="SvtYBPCczllp7nN_5kA5-71">
          <mxGeometry width="50" height="50" relative="1" as="geometry">
            <mxPoint x="380" y="510" as="sourcePoint" />
            <mxPoint x="430" y="460" as="targetPoint" />
          </mxGeometry>
        </mxCell>
        <mxCell id="SvtYBPCczllp7nN_5kA5-75" value="" style="endArrow=none;html=1;rounded=0;entryX=0.01;entryY=0.34;entryDx=0;entryDy=0;entryPerimeter=0;exitX=1;exitY=0.75;exitDx=0;exitDy=0;" edge="1" parent="1" source="SvtYBPCczllp7nN_5kA5-6" target="SvtYBPCczllp7nN_5kA5-72">
          <mxGeometry width="50" height="50" relative="1" as="geometry">
            <mxPoint x="380" y="510" as="sourcePoint" />
            <mxPoint x="430" y="460" as="targetPoint" />
          </mxGeometry>
        </mxCell>
        <mxCell id="SvtYBPCczllp7nN_5kA5-76" value="&lt;u&gt;id&lt;/u&gt;" style="ellipse;whiteSpace=wrap;html=1;" vertex="1" parent="1">
          <mxGeometry x="310" y="130" width="70" height="50" as="geometry" />
        </mxCell>
        <mxCell id="SvtYBPCczllp7nN_5kA5-77" value="&lt;i&gt;movie_id&lt;/i&gt;" style="ellipse;whiteSpace=wrap;html=1;" vertex="1" parent="1">
          <mxGeometry x="390" y="160" width="70" height="50" as="geometry" />
        </mxCell>
        <mxCell id="SvtYBPCczllp7nN_5kA5-78" value="&lt;i&gt;cast_id&lt;/i&gt;" style="ellipse;whiteSpace=wrap;html=1;" vertex="1" parent="1">
          <mxGeometry x="210" y="160" width="70" height="50" as="geometry" />
        </mxCell>
        <mxCell id="SvtYBPCczllp7nN_5kA5-79" value="" style="endArrow=none;html=1;rounded=0;entryX=0.5;entryY=1;entryDx=0;entryDy=0;exitX=0.578;exitY=-0.028;exitDx=0;exitDy=0;exitPerimeter=0;" edge="1" parent="1" source="SvtYBPCczllp7nN_5kA5-7" target="SvtYBPCczllp7nN_5kA5-76">
          <mxGeometry width="50" height="50" relative="1" as="geometry">
            <mxPoint x="380" y="310" as="sourcePoint" />
            <mxPoint x="430" y="260" as="targetPoint" />
          </mxGeometry>
        </mxCell>
        <mxCell id="SvtYBPCczllp7nN_5kA5-80" value="" style="endArrow=none;html=1;rounded=0;entryX=0;entryY=1;entryDx=0;entryDy=0;" edge="1" parent="1" source="SvtYBPCczllp7nN_5kA5-7" target="SvtYBPCczllp7nN_5kA5-77">
          <mxGeometry width="50" height="50" relative="1" as="geometry">
            <mxPoint x="380" y="310" as="sourcePoint" />
            <mxPoint x="430" y="260" as="targetPoint" />
          </mxGeometry>
        </mxCell>
        <mxCell id="SvtYBPCczllp7nN_5kA5-81" value="" style="endArrow=none;html=1;rounded=0;entryX=1;entryY=1;entryDx=0;entryDy=0;exitX=0.25;exitY=0;exitDx=0;exitDy=0;" edge="1" parent="1" source="SvtYBPCczllp7nN_5kA5-7" target="SvtYBPCczllp7nN_5kA5-78">
          <mxGeometry width="50" height="50" relative="1" as="geometry">
            <mxPoint x="380" y="310" as="sourcePoint" />
            <mxPoint x="430" y="260" as="targetPoint" />
          </mxGeometry>
        </mxCell>
      </root>
    </mxGraphModel>
  </diagram>
</mxfile>
